<?xml version="1.0" encoding="utf-8"?>
<!-- Generator: Adobe Illustrator 21.1.0, SVG Export Plug-In . SVG Version: 6.00 Build 0)  -->
<svg version="1.1" id="Layer_1" xmlns="http://www.w3.org/2000/svg" xmlns:xlink="http://www.w3.org/1999/xlink" x="0px" y="0px"
	 viewBox="0 0 105 30" style="enable-background:new 0 0 105 30;" xml:space="preserve">
<style type="text/css">
	.st0{fill:#2D2F30;}
	.st1{fill:none;stroke:#CCCCCC;stroke-miterlimit:10;}
	.st2{fill:#FFFFFF;}
</style>
<path class="st0" d="M99.5,28.2H5.5c-2.7,0-4.8-2.2-4.8-4.8V6.6c0-2.7,2.2-4.8,4.8-4.8h93.9c2.7,0,4.8,2.2,4.8,4.8v16.8
	C104.3,26.1,102.1,28.2,99.5,28.2z"/>
<g>
	<g>
		<path class="st2" d="M35.4,11.6C33.4,11.6,32,13,32,15c0,2,1.3,3.4,3.5,3.4c0.5,0,1.1-0.1,1.4-0.2v-2.7h-2.1
			c-0.1,0-0.2-0.1-0.2-0.2v-0.5c0-0.1,0.1-0.2,0.2-0.2h2.9c0.1,0,0.2,0.1,0.2,0.2v3.9c0,0.2-0.1,0.2-0.2,0.3
			c-0.7,0.3-1.4,0.4-2.3,0.4c-2.8,0-4.6-1.8-4.6-4.3c0-2.5,1.7-4.3,4.4-4.3c0.9,0,1.6,0.1,2.3,0.4c0.1,0,0.2,0.1,0.2,0.3l-0.1,0.6
			c0,0.2-0.1,0.3-0.3,0.2C36.9,11.7,36.2,11.6,35.4,11.6z"/>
		<path class="st2" d="M40.1,11c0-0.1,0.1-0.2,0.2-0.2h4.8c0.1,0,0.2,0.1,0.2,0.2v0.5c0,0.1-0.1,0.2-0.2,0.2h-3.9v2.7h3.6
			c0.1,0,0.2,0.1,0.2,0.2v0.5c0,0.1-0.1,0.2-0.2,0.2h-3.6v2.9h4.1c0.1,0,0.2,0.1,0.2,0.2V19c0,0.1-0.1,0.2-0.2,0.2h-4.9
			c-0.1,0-0.2-0.1-0.2-0.2V11z"/>
		<path class="st2" d="M48.9,11.7h-2.4c-0.1,0-0.2-0.1-0.2-0.2V11c0-0.1,0.1-0.2,0.2-0.2h5.8c0.1,0,0.2,0.1,0.2,0.2v0.5
			c0,0.1-0.1,0.2-0.2,0.2h-2.4V19c0,0.1-0.1,0.2-0.2,0.2h-0.6c-0.1,0-0.2-0.1-0.2-0.2V11.7z"/>
		<path class="st2" d="M57.7,11c0-0.1,0.1-0.2,0.2-0.2h0.6c0.1,0,0.2,0.1,0.2,0.2v7.2h4.3c0.1,0,0.2,0.1,0.2,0.2V19
			c0,0.1-0.1,0.2-0.2,0.2h-5.1c-0.1,0-0.2-0.1-0.2-0.2V11z"/>
		<path class="st2" d="M65.6,10.8c0.1,0,0.2,0.1,0.2,0.2V19c0,0.1-0.1,0.2-0.2,0.2H65c-0.1,0-0.2-0.1-0.2-0.2V11
			c0-0.1,0.1-0.2,0.2-0.2H65.6z"/>
		<path class="st2" d="M72.1,11.6c-2.1,0-3.4,1.4-3.4,3.4c0,2,1.3,3.4,3.5,3.4c0.5,0,1.1-0.1,1.4-0.2v-2.7h-2.1
			c-0.1,0-0.2-0.1-0.2-0.2v-0.5c0-0.1,0.1-0.2,0.2-0.2h2.9c0.1,0,0.2,0.1,0.2,0.2v3.9c0,0.2-0.1,0.2-0.2,0.3
			c-0.7,0.3-1.4,0.4-2.3,0.4c-2.8,0-4.6-1.8-4.6-4.3c0-2.5,1.7-4.3,4.4-4.3c0.9,0,1.6,0.1,2.3,0.4c0.1,0,0.2,0.1,0.2,0.3l-0.1,0.6
			c0,0.2-0.1,0.3-0.3,0.2C73.6,11.7,72.9,11.6,72.1,11.6z"/>
		<path class="st2" d="M76.8,11c0-0.1,0.1-0.2,0.2-0.2h0.6c0.1,0,0.2,0.1,0.2,0.2v3.2h4.4V11c0-0.1,0.1-0.2,0.2-0.2h0.6
			c0.1,0,0.2,0.1,0.2,0.2V19c0,0.1-0.1,0.2-0.2,0.2h-0.6c-0.1,0-0.2-0.1-0.2-0.2v-3.8h-4.4V19c0,0.1-0.1,0.2-0.2,0.2H77
			c-0.1,0-0.2-0.1-0.2-0.2V11z"/>
		<path class="st2" d="M87.2,11.7h-2.4c-0.1,0-0.2-0.1-0.2-0.2V11c0-0.1,0.1-0.2,0.2-0.2h5.8c0.1,0,0.2,0.1,0.2,0.2v0.5
			c0,0.1-0.1,0.2-0.2,0.2h-2.4V19c0,0.1-0.1,0.2-0.2,0.2h-0.6c-0.1,0-0.2-0.1-0.2-0.2V11.7z"/>
		<path class="st2" d="M96.6,11.8c0,0.2-0.1,0.3-0.3,0.2c-0.5-0.3-1.2-0.3-1.7-0.3c-1.2,0-1.8,0.5-1.8,1.2c0,0.7,0.5,1.2,1.7,1.6
			c1.8,0.6,2.6,1.3,2.6,2.6c0,1.5-1.1,2.4-3,2.4c-0.8,0-1.5-0.1-2.1-0.5c-0.1,0-0.1-0.1-0.1-0.2l0.1-0.7c0-0.2,0.1-0.2,0.3-0.1
			c0.6,0.4,1.3,0.5,2.1,0.5c1.2,0,1.8-0.5,1.8-1.3c0-0.9-0.7-1.4-1.8-1.7c-1.5-0.5-2.5-1.2-2.5-2.5c0-1.3,1.1-2.1,2.9-2.1
			c0.6,0,1.3,0.1,1.8,0.3c0.1,0,0.2,0.1,0.1,0.2L96.6,11.8z"/>
	</g>
</g>
<g>
	<path class="st2" d="M20.1,17.2h-5.5c-0.2,0-0.4-0.1-0.5-0.3l-3.4-7.5H7.3C7,9.4,6.8,9.2,6.8,8.9c0-0.3,0.2-0.5,0.5-0.5h3.8
		c0.2,0,0.4,0.1,0.5,0.3l3.4,7.5h5.1c2.1,0,4.1-1.3,5-3.2l1.1-2.3H14.5c-0.3,0-0.5-0.2-0.5-0.5c0-0.3,0.2-0.5,0.5-0.5H27
		c0.2,0,0.4,0.1,0.5,0.3c0.1,0.2,0.1,0.4,0,0.5l-1.4,3.1C25,15.7,22.7,17.2,20.1,17.2z"/>
	<path class="st2" d="M15.9,22.7c-1.2,0-2.1-0.9-2.1-2.1s0.9-2.1,2.1-2.1s2.1,0.9,2.1,2.1S17.1,22.7,15.9,22.7z M15.9,19.6
		c-0.6,0-1,0.5-1,1c0,0.6,0.5,1,1,1c0.6,0,1-0.5,1-1C16.9,20,16.5,19.6,15.9,19.6z"/>
	<path class="st2" d="M22.7,22.7c-1.2,0-2.1-0.9-2.1-2.1s0.9-2.1,2.1-2.1c1.2,0,2.1,0.9,2.1,2.1S23.8,22.7,22.7,22.7z M22.7,19.6
		c-0.6,0-1,0.5-1,1c0,0.6,0.5,1,1,1c0.6,0,1-0.5,1-1C23.7,20,23.2,19.6,22.7,19.6z"/>
</g>
</svg>
