<?xml version="1.0" encoding="utf-8"?>
<!-- Generator: Adobe Illustrator 21.1.0, SVG Export Plug-In . SVG Version: 6.00 Build 0)  -->
<svg version="1.1" id="Layer_1" xmlns="http://www.w3.org/2000/svg" xmlns:xlink="http://www.w3.org/1999/xlink" x="0px" y="0px"
	 viewBox="0 0 105 105" style="enable-background:new 0 0 105 105;" xml:space="preserve">
<style type="text/css">
	.st0{fill:#FFFFFF;}
	.st1{fill:none;stroke:#CCCCCC;stroke-width:2;stroke-miterlimit:10;}
	.st2{fill:#3FAE29;}
	.st3{fill:#808080;}
	.st4{fill:#FFFFFF;stroke:#808080;stroke-width:0.7567;stroke-miterlimit:10;}
</style>
<path class="st0" d="M93.3,103.5H11.7c-5.6,0-10.2-4.6-10.2-10.2V11.7c0-5.6,4.6-10.2,10.2-10.2h81.6c5.6,0,10.2,4.6,10.2,10.2v81.6
	C103.5,98.9,98.9,103.5,93.3,103.5z M11.7,3.5c-4.5,0-8.2,3.7-8.2,8.2v81.6c0,4.5,3.7,8.2,8.2,8.2h81.6c4.5,0,8.2-3.7,8.2-8.2V11.7
	c0-4.5-3.7-8.2-8.2-8.2H11.7z"/>
<path class="st0" d="M69.1,89.1c-3.4,1.7-3.4-8.4-5.8-6.6c-10.9,7.2-11.9,5.4-16.3,3.8c-5.9-1.7-20-7.5-24.4-16.5
	c-4.4-11.3-0.8-28.5-0.2-31.1c1.8-7.4,6.2-8.7,9.6-9.4c12.7-1.9,32.1,5,35.9,8.4c5,4.2,10.9,28.8,8.6,36c-0.8,2.3-8.4,4.4-9.2,6.1
	C65.8,81.8,72.7,87.6,69.1,89.1 M40.3,52.2c1.7,2.7,5,3.8,7.3,2.4c2.3-1.4,2.8-4.8,1.1-7.5c-1.7-2.7-5-3.8-7.3-2.4
	C39.1,46.2,38.6,49.5,40.3,52.2 M41.2,70.3c1.7,2.7,5,3.8,7.3,2.4c2.3-1.4,2.8-4.8,1.1-7.5c-1.7-2.7-5-3.8-7.3-2.4
	C39.9,64.2,39.5,67.5,41.2,70.3 M56.4,61c1.7,2.7,5,3.8,7.3,2.4c2.3-1.4,2.8-4.8,1.1-7.5c-1.7-2.7-5-3.8-7.3-2.4
	C55.1,54.9,54.6,58.3,56.4,61"/>
<g>
	<path class="st0" d="M86.9,11.9H68.6c-1.2,0-2.2,1-2.2,2.2v17.5c0,1.2,1,2.2,2.2,2.2h18.3c1.2,0,2.2-1,2.2-2.2V14
		C89.1,12.8,88.1,11.9,86.9,11.9z M84.9,13.1c0.5,0,0.9,0.4,0.9,0.9c0,0.5-0.4,0.9-0.9,0.9S84,14.4,84,13.9
		C84,13.4,84.4,13.1,84.9,13.1z M88,31.9c0,0.7-0.6,1.2-1.2,1.2H68.6c-0.7,0-1.2-0.6-1.2-1.2V17.5c0-0.7,0.6-1.2,1.2-1.2h18.1
		c0.7,0,1.2,0.6,1.2,1.2V31.9z M87.1,14.8c-0.5,0-0.9-0.4-0.9-0.9c0-0.5,0.4-0.9,0.9-0.9c0.5,0,0.9,0.4,0.9,0.9
		C88,14.4,87.6,14.8,87.1,14.8z"/>
	<g>
		<path class="st0" d="M93,28.6c0-0.1,0-0.3,0-0.4c0-3-2.5-5.4-5.6-5.4c-2.2,0-4.2,1.3-5.1,3.1c-0.4-0.2-0.9-0.3-1.4-0.3
			c-2,0-3.7,1.7-3.7,3.7c0,0,0,0,0,0c-0.3-0.1-0.7-0.2-1-0.2c-1.8,0-3.3,1.5-3.3,3.4c0,1.9,1.4,3.4,3.2,3.4v0h15v0
			c0.1,0,0.1,0,0.2,0c2.5,0,4.6-1.7,4.6-3.8C95.9,30.6,94.7,29.2,93,28.6z"/>
		<path class="st0" d="M91.3,36.4L91.3,36.4h-0.2h-15c-2,0-3.6-1.8-3.6-3.8c0-2.1,1.7-3.8,3.7-3.8c0.2,0,0.5,0,0.7,0.1
			c0.2-2,2-3.6,4-3.6c0.4,0,0.8,0.1,1.2,0.2c1-1.9,3.1-3,5.3-3c3.3,0,6,2.6,6,5.8c0,0,0,0.1,0,0.1c1.8,0.7,2.9,2.2,2.9,3.8
			c0,2.3-2.1,4.1-4.8,4.2l0,0C91.5,36.4,91.4,36.4,91.3,36.4z M90.8,35.7l0.6,0c2.3,0,4.2-1.6,4.2-3.5c0-1.4-1-2.7-2.7-3.2l-0.3-0.1
			l0-0.3c0-0.1,0-0.2,0-0.4c0-2.8-2.4-5.1-5.2-5.1c-2,0-3.9,1.1-4.7,2.9l-0.2,0.3l-0.3-0.1c-0.4-0.2-0.8-0.2-1.3-0.2
			c-1.8,0-3.3,1.5-3.3,3.3v0.5l-0.5-0.2c-0.3-0.1-0.6-0.2-0.9-0.2c-1.6,0-2.9,1.4-2.9,3.1c0,1.6,1.3,3,2.9,3.1L90.8,35.7L90.8,35.7z
			"/>
	</g>
</g>
</svg>
