<?xml version="1.0" encoding="utf-8"?>
<!-- Generator: Adobe Illustrator 21.1.0, SVG Export Plug-In . SVG Version: 6.00 Build 0)  -->
<svg version="1.1" id="Layer_1" xmlns="http://www.w3.org/2000/svg" xmlns:xlink="http://www.w3.org/1999/xlink" x="0px" y="0px"
	 viewBox="0 0 105 105" style="enable-background:new 0 0 105 105;" xml:space="preserve">
<style type="text/css">
	.st0{fill:none;stroke:#CCCCCC;stroke-width:2;stroke-miterlimit:10;}
	.st1{fill:#3FAE29;}
	.st2{fill:#808080;}
	.st3{fill:#FFFFFF;stroke:#808080;stroke-width:0.7567;stroke-miterlimit:10;}
	.st4{fill:#FFFFFF;}
</style>
<path class="st0" d="M93.3,102.5H11.7c-5.1,0-9.2-4.1-9.2-9.2V11.7c0-5.1,4.1-9.2,9.2-9.2h81.6c5.1,0,9.2,4.1,9.2,9.2v81.6
	C102.5,98.4,98.4,102.5,93.3,102.5z"/>
<path class="st1" d="M69.1,89.1c-3.4,1.7-3.4-8.4-5.8-6.6c-10.9,7.2-11.9,5.4-16.3,3.8c-5.9-1.7-20-7.5-24.4-16.5
	c-4.4-11.3-0.8-28.5-0.2-31.1c1.8-7.4,6.2-8.7,9.6-9.4c12.7-1.9,32.1,5,35.9,8.4c5,4.2,10.9,28.8,8.6,36c-0.8,2.3-8.4,4.4-9.2,6.1
	C65.8,81.8,72.7,87.6,69.1,89.1 M40.3,52.2c1.7,2.7,5,3.8,7.3,2.4c2.3-1.4,2.8-4.8,1.1-7.5c-1.7-2.7-5-3.8-7.3-2.4
	C39.1,46.2,38.6,49.5,40.3,52.2 M41.2,70.3c1.7,2.7,5,3.8,7.3,2.4c2.3-1.4,2.8-4.8,1.1-7.5c-1.7-2.7-5-3.8-7.3-2.4
	C39.9,64.2,39.5,67.5,41.2,70.3 M56.4,61c1.7,2.7,5,3.8,7.3,2.4c2.3-1.4,2.8-4.8,1.1-7.5c-1.7-2.7-5-3.8-7.3-2.4
	C55.1,54.9,54.6,58.3,56.4,61"/>
<g>
	<path class="st4" d="M88,31.7c0,0.7-0.6,1.2-1.2,1.2H68.7c-0.7,0-1.2-0.6-1.2-1.2V17.4c0-0.7,0.6-1.2,1.2-1.2h18.1
		c0.7,0,1.2,0.6,1.2,1.2V31.7z"/>
	<path class="st2" d="M86.9,11.9H68.6c-1.2,0-2.2,1-2.2,2.2v17.5c0,1.2,1,2.2,2.2,2.2h18.3c1.2,0,2.2-1,2.2-2.2V14
		C89.1,12.8,88.1,11.9,86.9,11.9z M84.9,13.1c0.5,0,0.9,0.4,0.9,0.9c0,0.5-0.4,0.9-0.9,0.9S84,14.4,84,13.9
		C84,13.4,84.4,13.1,84.9,13.1z M88,31.9c0,0.7-0.6,1.2-1.2,1.2H68.6c-0.7,0-1.2-0.6-1.2-1.2V17.5c0-0.7,0.6-1.2,1.2-1.2h18.1
		c0.7,0,1.2,0.6,1.2,1.2V31.9z M87.1,14.8c-0.5,0-0.9-0.4-0.9-0.9c0-0.5,0.4-0.9,0.9-0.9c0.5,0,0.9,0.4,0.9,0.9
		C88,14.4,87.6,14.8,87.1,14.8z"/>
	<path class="st3" d="M93,28.6c0-0.1,0-0.3,0-0.4c0-3-2.5-5.4-5.6-5.4c-2.2,0-4.2,1.3-5.1,3.1c-0.4-0.2-0.9-0.3-1.4-0.3
		c-2,0-3.7,1.7-3.7,3.7c0,0,0,0,0,0c-0.3-0.1-0.7-0.2-1-0.2c-1.8,0-3.3,1.5-3.3,3.4c0,1.9,1.4,3.4,3.2,3.4v0h15v0c0.1,0,0.1,0,0.2,0
		c2.5,0,4.6-1.7,4.6-3.8C95.9,30.6,94.7,29.2,93,28.6z"/>
</g>
</svg>
